<?xml version="1.0" standalone="no"?>
<!DOCTYPE svg PUBLIC "-//W3C//DTD SVG 20010904//EN"
 "http://www.w3.org/TR/2001/REC-SVG-20010904/DTD/svg10.dtd">
<svg version="1.0" xmlns="http://www.w3.org/2000/svg"
 width="514.000000pt" height="514.000000pt" viewBox="0 0 514.000000 514.000000"
 preserveAspectRatio="xMidYMid meet">
<metadata>
Created by potrace 1.14, written by Peter Selinger 2001-2017
</metadata>
<g transform="translate(0.000000,514.000000) scale(0.100000,-0.100000)"
fill="#000000" stroke="none">
<path d="M2500 3523 c-173 -28 -336 -56 -339 -59 -9 -8 34 -33 47 -29 7 3 10
0 7 -5 -11 -17 5 -48 27 -54 29 -7 18 -17 -21 -18 -20 -1 -31 -6 -31 -15 0 -8
5 -11 12 -7 6 4 8 3 5 -4 -4 -5 -15 -8 -26 -5 -14 3 -20 -2 -23 -22 -4 -17 -1
-28 9 -32 7 -3 106 10 218 28 177 29 205 36 205 52 0 24 -26 32 -48 16 -14
-11 -15 -11 -4 1 6 8 12 22 12 32 0 14 -8 18 -37 18 -28 0 -34 3 -23 10 8 5
27 10 43 10 17 0 27 5 27 15 0 8 7 15 15 15 8 0 15 5 15 10 0 7 -7 7 -21 0
-11 -7 -23 -9 -26 -6 -3 3 6 10 21 15 14 6 26 17 26 26 0 15 -30 18 -90 8z"/>
<path d="M2610 3516 c0 -21 38 -30 58 -14 15 11 16 11 4 -3 -17 -23 -5 -48 32
-64 l31 -13 -27 -1 c-14 -1 -29 -7 -31 -13 -4 -10 -6 -10 -6 0 -1 6 -8 12 -17
12 -10 0 -14 -7 -12 -17 2 -10 10 -17 16 -15 15 3 16 -14 2 -23 -5 -3 -10 -1
-10 4 0 6 -9 11 -20 11 -14 0 -20 -7 -20 -22 0 -22 9 -24 218 -58 209 -35 217
-35 220 -17 6 33 -13 39 -44 15 -26 -19 -27 -20 -11 -2 29 34 22 54 -18 54
-19 0 -35 5 -35 10 0 6 16 10 35 10 28 0 35 4 35 20 0 11 -5 20 -11 20 -5 0
-7 5 -3 11 5 8 10 7 16 -4 5 -9 15 -14 23 -11 20 8 19 22 -2 27 -17 4 -17 5 0
6 22 1 22 18 -1 25 -29 10 -371 66 -398 66 -14 0 -24 -6 -24 -14z"/>
<path d="M1915 3426 c-99 -18 -189 -35 -200 -39 -17 -7 -16 -9 9 -22 15 -8 32
-13 36 -10 4 3 8 -1 7 -8 -1 -41 5 -57 21 -58 13 0 14 -2 2 -6 -8 -3 -18 -11
-22 -17 -5 -8 -8 -7 -8 2 0 6 -5 12 -11 12 -6 0 -9 -8 -6 -19 3 -14 0 -17 -13
-14 -21 6 -35 -46 -15 -53 7 -3 93 9 191 25 252 44 234 38 234 70 0 38 -9 44
-39 25 -14 -9 -20 -11 -13 -3 22 24 15 49 -15 49 -23 0 -25 13 -2 16 5 1 14 2
19 3 6 0 10 10 10 20 0 14 5 18 20 14 14 -4 20 0 20 11 0 9 -8 16 -17 17 -15
0 -15 2 2 9 18 8 18 9 -5 8 -14 0 -106 -15 -205 -32z"/>
<path d="M2640 3450 c0 -5 5 -10 11 -10 5 0 7 5 4 10 -3 6 -8 10 -11 10 -2 0
-4 -4 -4 -10z"/>
<path d="M3070 3452 c0 -11 47 -25 58 -18 4 2 7 -10 7 -27 0 -27 4 -33 25 -35
42 -6 48 -22 8 -22 -30 0 -37 -4 -42 -25 -6 -24 -26 -36 -26 -15 0 6 -7 10
-15 10 -22 0 -20 -57 3 -64 9 -2 87 -17 172 -31 85 -15 157 -28 160 -30 10 -6
42 54 35 65 -3 6 -24 10 -46 10 -21 0 -39 5 -39 10 0 6 18 10 39 10 39 0 65
25 41 40 -12 8 3 22 34 34 38 13 -1 24 -189 56 -104 17 -198 34 -207 36 -10 3
-18 1 -18 -4z"/>
<path d="M2160 3425 c0 -8 7 -15 15 -15 8 0 15 4 15 9 0 5 -7 11 -15 15 -9 3
-15 0 -15 -9z"/>
<path d="M3070 3420 c0 -5 7 -10 16 -10 8 0 12 5 9 10 -3 6 -10 10 -16 10 -5
0 -9 -4 -9 -10z"/>
<path d="M2190 3390 c0 -5 5 -10 10 -10 6 0 10 5 10 10 0 6 -4 10 -10 10 -5 0
-10 -4 -10 -10z"/>
<path d="M3105 3391 c-3 -5 -1 -12 5 -16 5 -3 10 1 10 9 0 18 -6 21 -15 7z"/>
<path d="M1453 3346 c-101 -18 -186 -35 -190 -39 -8 -9 28 -38 42 -33 6 2 11
-8 12 -22 0 -14 9 -32 19 -39 13 -10 14 -13 3 -13 -8 0 -20 -9 -26 -19 -8 -12
-19 -17 -31 -14 -15 3 -21 -2 -24 -21 -3 -15 -2 -29 3 -32 8 -5 103 9 312 47
117 22 117 22 117 50 0 37 -16 45 -43 23 -12 -10 -16 -12 -9 -4 21 25 15 50
-14 50 -14 0 -23 4 -19 10 4 6 10 8 15 5 5 -3 18 3 30 15 11 11 25 20 30 20 6
0 10 11 10 25 0 32 -5 32 -237 -9z"/>
<path d="M3520 3375 c0 -10 41 -25 52 -19 8 5 5 10 -8 15 -22 9 -44 11 -44 4z"/>
<path d="M1710 3345 c0 -8 7 -15 15 -15 8 0 15 -7 15 -15 0 -8 5 -15 10 -15
14 0 13 7 -6 35 -18 28 -34 33 -34 10z"/>
<path d="M3592 3348 c-7 -7 -12 -22 -12 -35 0 -21 4 -23 50 -23 28 0 50 -4 50
-10 0 -5 -22 -10 -49 -10 -43 0 -50 -3 -55 -24 -3 -14 -16 -26 -31 -30 -14 -4
-25 -13 -25 -20 0 -16 1 -17 203 -51 l148 -26 18 23 c10 12 16 28 13 36 -4 11
-6 11 -13 0 -7 -10 -9 -10 -9 0 0 8 -16 12 -45 12 -25 0 -45 5 -45 10 0 6 20
10 44 10 40 0 44 2 49 28 4 17 16 33 31 40 24 11 36 32 18 32 -4 0 -71 11
-148 25 -159 28 -175 30 -192 13z"/>
<path d="M3100 3335 c0 -8 5 -15 10 -15 6 0 10 7 10 15 0 8 -4 15 -10 15 -5 0
-10 -7 -10 -15z"/>
<path d="M3465 3340 c-3 -5 1 -10 9 -10 8 0 18 5 21 10 3 6 -1 10 -9 10 -8 0
-18 -4 -21 -10z"/>
<path d="M3520 3340 c0 -6 7 -10 15 -10 8 0 15 2 15 4 0 2 -7 6 -15 10 -8 3
-15 1 -15 -4z"/>
<path d="M1035 3274 c-104 -18 -201 -36 -215 -40 l-25 -6 25 -13 c14 -7 28
-11 33 -8 4 2 7 1 6 -4 -3 -20 2 -34 21 -53 18 -18 18 -20 3 -21 -10 -1 -26
-1 -35 0 -20 2 -24 -18 -8 -37 7 -9 7 -9 -2 -2 -7 6 -17 10 -24 10 -13 0 -25
-58 -13 -66 5 -2 61 5 126 16 65 12 162 28 216 37 95 15 97 16 97 43 0 37 -9
43 -39 24 -14 -9 -20 -11 -13 -3 22 24 15 49 -15 49 -30 0 -21 16 12 22 11 2
19 11 19 20 -1 10 5 14 17 11 16 -4 19 0 19 26 0 17 -3 31 -7 30 -5 -1 -93
-16 -198 -35z"/>
<path d="M3990 3285 c27 -14 36 -13 25 4 -3 6 -16 11 -28 11 -21 -1 -21 -1 3
-15z"/>
<path d="M1260 3265 c0 -8 7 -15 15 -15 8 0 15 -7 15 -15 0 -8 5 -15 10 -15
14 0 13 7 -6 35 -18 28 -34 33 -34 10z"/>
<path d="M4041 3263 c-12 -14 -11 -18 10 -34 13 -10 41 -19 62 -19 20 0 37 -4
37 -10 0 -5 -18 -10 -39 -10 -22 0 -43 -5 -46 -10 -4 -6 -10 -8 -15 -5 -11 7
-33 -22 -26 -33 3 -6 0 -10 -7 -9 -33 1 -47 -4 -47 -18 0 -8 3 -15 8 -15 4 0
81 -13 172 -29 152 -27 165 -28 177 -12 7 9 13 22 13 29 0 7 4 10 10 7 6 -4 7
1 3 11 -4 10 -8 13 -10 7 -4 -12 -43 -5 -43 8 0 5 -16 9 -35 9 -19 0 -35 5
-35 10 0 6 13 10 29 10 17 0 33 5 36 10 3 6 15 10 25 10 10 0 22 9 25 20 3 11
13 20 20 20 8 0 17 4 20 10 4 6 -1 7 -10 3 -10 -3 -20 -1 -24 4 -6 10 -232 53
-274 53 -12 -1 -28 -8 -36 -17z m309 -47 c0 -2 -7 -7 -16 -10 -8 -3 -12 -2 -9
4 6 10 25 14 25 6z"/>
<path d="M3908 3256 c-10 -7 -18 -22 -17 -32 0 -17 1 -17 11 2 5 12 20 27 32
32 13 7 15 11 6 11 -8 0 -23 -6 -32 -13z"/>
<path d="M3525 3230 c-3 -5 -1 -10 4 -10 6 0 11 5 11 10 0 6 -2 10 -4 10 -3 0
-8 -4 -11 -10z"/>
<path d="M576 3195 c-104 -19 -193 -38 -199 -44 -15 -15 46 -43 64 -28 11 10
11 9 2 -3 -14 -19 6 -67 25 -62 7 1 12 -3 12 -8 0 -5 -16 -10 -35 -10 -24 0
-35 -5 -35 -15 0 -17 16 -20 23 -5 3 6 4 5 3 -2 -2 -8 -14 -12 -30 -10 -23 2
-26 -1 -26 -27 0 -16 -4 -33 -10 -36 -6 -4 -10 6 -10 23 0 39 -9 45 -37 26
-24 -15 -24 -15 -9 9 20 29 13 37 -32 37 l-35 0 8 -42 c4 -24 9 -61 10 -83 1
-22 12 -84 25 -137 l22 -98 39 0 c32 0 39 3 39 20 0 11 3 19 8 19 25 -4 32 4
33 39 0 25 3 31 7 19 4 -10 19 -24 34 -31 46 -24 52 -2 28 94 -11 45 -18 91
-14 102 8 28 51 42 182 63 l112 18 0 32 c0 42 -8 48 -37 29 l-24 -15 16 25
c19 28 16 31 -35 39 -23 4 -23 5 8 12 19 4 36 14 39 21 3 8 11 14 19 14 8 0
14 7 14 15 0 8 -6 15 -12 15 -9 0 -8 4 2 10 20 13 24 13 -194 -25z"/>
<path d="M3458 3219 c-27 -15 -21 -29 12 -29 23 0 30 4 30 20 0 22 -15 25 -42
9z"/>
<path d="M800 3195 c0 -8 7 -15 15 -15 8 0 15 -7 15 -15 0 -8 7 -15 16 -15 16
0 12 10 -15 42 -19 22 -31 23 -31 3z"/>
<path d="M1290 3184 c0 -8 5 -12 10 -9 6 3 10 10 10 16 0 5 -4 9 -10 9 -5 0
-10 -7 -10 -16z"/>
<path d="M291 3123 c-16 -16 -32 -39 -36 -52 -7 -22 -5 -23 27 -16 18 4 38 13
44 21 6 8 16 14 23 14 15 0 14 27 -1 33 -10 4 -10 6 0 6 6 1 12 6 12 11 0 20
-40 9 -69 -17z"/>
<path d="M3912 3138 c-19 -19 -14 -28 13 -28 14 0 25 5 25 10 0 6 -7 10 -16
10 -8 0 -12 5 -9 10 8 14 2 13 -13 -2z"/>
<path d="M380 3105 c0 -8 7 -15 15 -15 8 0 15 -7 15 -15 0 -8 7 -15 16 -15 16
0 12 10 -15 42 -19 22 -31 23 -31 3z"/>
<path d="M4522 3101 c-5 -3 -15 -17 -22 -30 -10 -19 -14 -21 -21 -10 -7 11
-13 9 -28 -11 -11 -14 -19 -26 -18 -27 1 -1 55 -11 119 -22 127 -21 154 -31
163 -60 3 -11 -6 -66 -20 -123 -14 -56 -27 -111 -29 -120 -7 -29 11 -20 24 12
7 17 19 30 27 30 15 0 34 40 25 54 -3 5 0 6 6 2 8 -5 12 5 12 33 0 23 5 41 10
41 10 0 14 -13 11 -42 -1 -10 3 -18 8 -18 6 0 11 -8 11 -19 0 -21 39 -36 54
-21 14 14 23 12 23 -5 0 -8 -4 -15 -8 -15 -3 0 -9 -11 -12 -25 -2 -14 -2 -23
1 -21 3 3 11 -2 17 -11 11 -14 16 -2 34 78 37 165 39 179 31 174 -5 -3 -12
-20 -16 -37 -3 -18 -13 -43 -21 -55 -8 -12 -14 -25 -13 -28 1 -4 -1 -10 -5
-13 -4 -4 -5 0 -3 8 2 8 -2 14 -9 13 -7 -2 -10 4 -6 13 5 13 7 13 14 2 5 -7 9
-8 9 -3 0 6 -5 17 -10 25 -7 11 -10 11 -10 2 0 -7 -5 -10 -12 -6 -7 4 -8 3 -4
-5 4 -6 0 -14 -10 -18 -10 -4 -19 -2 -22 5 -2 7 -8 9 -14 6 -5 -4 -4 4 3 17
11 22 11 23 -5 10 -9 -8 -16 -10 -15 -5 1 5 1 20 0 35 -1 20 -6 25 -25 25 -14
0 -22 -5 -20 -10 3 -6 -2 -2 -10 9 -9 11 -14 25 -12 31 3 7 -3 18 -12 26 -13
11 -15 11 -8 -2 6 -12 4 -11 -6 1 -7 9 -19 14 -25 12 -7 -3 -13 4 -14 14 0 16
-1 16 -9 -2 -6 -14 -9 -15 -9 -5 -1 8 -11 20 -23 25 -13 6 -24 16 -24 23 -3
25 -5 27 -14 12 -7 -12 -9 -10 -7 7 1 15 5 19 13 13 6 -6 13 -7 16 -5 3 3 5
-5 4 -17 -1 -26 25 -32 31 -8 4 13 3 13 -6 0 -8 -11 -11 -11 -12 -2 -3 27 -4
31 -12 38 -9 10 -72 14 -85 5z"/>
<path d="M4342 3051 c-10 -6 -8 -10 10 -14 12 -4 31 -7 41 -7 16 0 17 2 3 15
-16 17 -34 19 -54 6z"/>
<path d="M1215 2987 c-53 -30 -85 -87 -85 -154 0 -63 10 -92 52 -145 47 -58
93 -78 176 -78 38 0 83 5 101 11 l31 11 0 89 c0 72 -3 89 -15 89 -8 0 -15 9
-15 20 0 18 -7 20 -75 20 l-75 0 0 -30 c0 -20 5 -30 15 -30 8 0 15 -9 15 -20
0 -11 7 -20 15 -20 8 0 15 -7 15 -15 0 -11 -11 -15 -36 -15 -58 0 -74 14 -74
65 0 106 61 138 171 91 24 -10 49 52 27 68 -8 6 -13 17 -10 24 6 20 -62 42
-130 42 -47 0 -73 -6 -103 -23z"/>
<path d="M1589 2988 c-54 -31 -83 -88 -82 -163 1 -70 11 -95 62 -148 50 -53
81 -67 148 -67 114 0 173 61 173 181 0 60 -4 72 -39 126 -46 72 -85 93 -168
93 -41 0 -69 -7 -94 -22z m172 -109 c6 -13 9 -42 6 -68 -8 -74 -79 -117 -122
-74 -27 26 -15 110 19 140 35 30 81 30 97 2z"/>
<path d="M1990 2988 c-57 -39 -74 -71 -78 -147 -3 -50 0 -77 13 -102 22 -43
72 -96 107 -115 38 -20 135 -18 178 4 68 34 102 125 80 213 -15 59 -73 137
-115 155 -54 22 -146 18 -185 -8z m170 -107 c15 -28 12 -87 -5 -121 -27 -53
-108 -54 -120 -1 -9 41 11 107 38 126 30 21 74 19 87 -4z"/>
<path d="M2320 2831 c0 -154 2 -181 15 -181 8 0 15 -9 15 -20 0 -19 7 -20 93
-20 119 0 157 11 200 59 61 68 60 153 -3 251 -44 69 -81 84 -212 88 l-108 4 0
-181z m225 46 c14 -11 17 -23 13 -61 -7 -57 -22 -75 -71 -83 l-37 -6 0 82 0
81 38 0 c21 0 46 -6 57 -13z"/>
<path d="M2710 2830 c0 -153 2 -180 15 -180 8 0 15 -9 15 -20 0 -19 7 -20 125
-20 l125 0 0 35 c0 22 -6 38 -15 41 -8 4 -15 15 -15 25 0 17 -8 19 -60 19
l-60 0 0 115 c0 94 -3 117 -15 121 -8 4 -15 15 -15 25 0 16 -8 19 -50 19 l-50
0 0 -180z"/>
<path d="M2980 2893 c0 -142 9 -176 56 -226 45 -47 69 -57 142 -57 70 0 117
26 138 75 21 50 20 285 -1 285 -8 0 -15 9 -15 20 0 17 -7 20 -44 20 l-44 0 -3
-124 c-3 -106 -7 -127 -23 -145 -13 -14 -29 -21 -45 -19 l-26 3 -3 118 c-2 93
-6 119 -17 124 -8 3 -15 14 -15 24 0 16 -8 19 -50 19 l-50 0 0 -117z"/>
<path d="M3435 2987 c-76 -42 -107 -154 -66 -242 27 -59 93 -123 136 -131 54
-10 144 0 162 19 13 13 14 20 4 44 -6 15 -19 38 -29 50 -17 22 -18 22 -62 7
-35 -13 -51 -14 -72 -5 -25 9 -28 15 -28 59 0 88 59 130 136 97 41 -17 49 -13
59 27 5 20 3 29 -8 34 -9 3 -14 11 -11 18 8 21 -58 46 -123 46 -41 0 -69 -7
-98 -23z"/>
<path d="M3700 2830 c0 -153 2 -180 15 -180 8 0 15 -9 15 -20 0 -17 7 -20 50
-20 l50 0 0 78 0 77 71 -77 71 -78 54 0 54 0 -28 39 c-15 21 -49 64 -76 95
l-48 56 30 37 c17 21 49 56 71 78 48 46 50 55 14 55 -25 0 -26 0 -8 20 18 20
17 20 -41 20 l-59 0 -52 -57 -52 -58 -1 38 c0 26 -4 37 -15 37 -8 0 -15 9 -15
20 0 17 -7 20 -50 20 l-50 0 0 -180z"/>
<path d="M450 2730 c0 -6 7 -13 15 -16 8 -4 15 -12 15 -20 0 -8 5 -14 10 -14
15 0 12 17 -7 40 -19 22 -33 26 -33 10z"/>
<path d="M508 2734 c-10 -9 4 -54 17 -54 8 0 10 9 7 25 -4 26 -15 38 -24 29z"/>
<path d="M4696 2694 c-5 -14 -4 -15 9 -4 17 14 19 20 6 20 -5 0 -12 -7 -15
-16z"/>
<path d="M320 2654 c0 -4 18 -82 41 -175 l41 -169 33 0 c37 0 52 14 36 34 -11
13 3 36 23 36 5 0 2 -6 -9 -13 -12 -10 -14 -16 -7 -21 20 -12 32 4 32 41 0 42
9 38 19 -9 5 -23 13 -33 24 -32 11 1 16 -4 15 -14 -2 -8 3 -17 10 -19 22 -8
12 25 -14 46 -15 12 -21 21 -13 21 23 0 37 -14 44 -43 4 -15 13 -27 21 -27 13
0 12 8 -3 48 -3 9 -7 26 -8 37 -1 11 -14 73 -29 138 -29 123 -45 147 -72 109
-9 -13 -21 -18 -34 -15 -17 4 -20 0 -20 -25 0 -17 -4 -34 -10 -37 -6 -4 -10 6
-10 23 0 39 -9 45 -39 26 -14 -9 -20 -11 -13 -3 6 7 12 21 12 31 0 14 -8 18
-35 18 -19 0 -35 -3 -35 -6z"/>
<path d="M480 2644 c0 -8 5 -12 10 -9 6 3 10 10 10 16 0 5 -4 9 -10 9 -5 0
-10 -7 -10 -16z"/>
<path d="M4656 2651 c-3 -4 -21 -75 -41 -157 -20 -82 -38 -157 -41 -166 -4
-14 0 -18 20 -18 16 0 27 7 31 20 4 11 16 21 28 21 18 1 19 2 4 6 -10 3 -28
-4 -39 -14 -21 -18 -21 -18 -9 4 6 13 22 25 35 29 19 4 23 13 24 46 3 68 21
68 24 0 1 -45 22 -61 55 -43 15 7 19 6 19 -9 0 -10 -3 -18 -6 -17 -6 2 -10 -8
-10 -28 0 -9 9 -15 24 -15 23 0 26 8 66 171 22 94 39 174 36 177 -4 3 -6 1 -6
-5 0 -6 -10 -13 -21 -16 -15 -4 -20 -11 -15 -23 4 -11 2 -15 -8 -11 -20 8 -46
-35 -46 -78 0 -19 -4 -35 -10 -35 -5 0 -10 20 -10 45 0 57 -25 75 -67 48 l-28
-18 16 25 c12 19 14 31 6 48 -10 23 -22 28 -31 13z"/>
<path d="M1370 2400 c0 -27 122 -345 135 -352 8 -5 15 -16 15 -24 0 -12 10
-14 42 -12 41 3 41 3 64 68 43 127 38 124 65 42 12 -39 28 -72 35 -72 6 0 14
-9 17 -20 4 -16 14 -20 44 -20 l38 0 59 168 c33 92 61 173 64 180 2 6 -3 12
-12 12 -9 0 -16 8 -16 20 0 17 -7 20 -44 20 l-44 0 -35 -102 -34 -103 -27 83
c-15 45 -31 82 -36 82 -4 0 -10 9 -13 20 -4 15 -14 20 -40 20 l-35 0 -32 -95
c-17 -52 -33 -95 -35 -95 -2 0 -13 30 -25 68 -13 37 -29 74 -36 83 -8 8 -14
21 -14 27 0 8 -18 12 -50 12 -27 0 -50 -4 -50 -10z"/>
<path d="M1960 2230 c0 -153 2 -180 15 -180 8 0 15 -9 15 -20 0 -17 7 -20 45
-20 l45 0 0 180 c0 113 -4 180 -10 180 -5 0 -10 9 -10 20 0 17 -7 20 -50 20
l-50 0 0 -180z"/>
<path d="M2120 2230 c0 -153 2 -180 15 -180 8 0 15 -9 15 -20 0 -17 7 -20 45
-20 l44 0 3 91 3 92 75 -92 c70 -85 77 -91 113 -91 l37 0 0 175 c0 147 -2 177
-15 181 -8 4 -15 15 -15 25 0 16 -8 19 -45 19 l-44 0 -3 -97 -3 -98 -79 98
c-71 88 -81 97 -112 97 l-34 0 0 -180z"/>
<path d="M2640 2230 c0 -173 1 -180 20 -180 13 0 20 -7 20 -20 0 -17 7 -20 45
-20 l45 0 0 70 0 70 55 0 c135 0 183 77 118 187 -36 61 -67 73 -198 73 l-105
0 0 -180z m200 60 c13 -9 13 -11 0 -20 -8 -5 -27 -10 -42 -10 -21 0 -28 5 -28
20 0 15 7 20 28 20 15 0 34 -5 42 -10z"/>
<path d="M2990 2230 c0 -153 2 -180 15 -180 8 0 15 -9 15 -20 0 -19 7 -20 171
-20 l170 0 15 35 14 35 71 0 c63 0 72 -3 94 -26 14 -15 25 -31 25 -35 0 -5 20
-9 45 -9 25 0 45 2 45 4 0 10 -153 333 -172 364 -17 27 -25 32 -59 32 -32 0
-41 -4 -48 -22 -5 -13 -40 -86 -77 -163 -49 -102 -69 -134 -71 -117 -4 20 -10
22 -69 22 l-64 0 0 120 c0 73 -4 120 -10 120 -5 0 -10 9 -10 20 0 17 -7 20
-50 20 l-50 0 0 -180z m490 -22 c0 -5 -7 -8 -15 -8 -15 0 -20 21 -8 33 7 7 23
-11 23 -25z m-208 -180 c-7 -7 -12 -8 -12 -2 0 14 12 26 19 19 2 -3 -1 -11 -7
-17z"/>
<path d="M3624 2300 l76 -109 0 -71 c0 -63 2 -70 20 -70 13 0 20 -7 20 -20 0
-17 7 -20 45 -20 l45 0 0 66 c0 66 0 67 75 178 l76 111 -28 5 c-19 4 -24 8
-15 13 26 17 10 27 -42 27 l-54 0 -41 -65 c-23 -36 -45 -63 -50 -61 -5 3 -26
33 -47 66 l-38 60 -59 0 -59 0 76 -110z"/>
<path d="M410 2281 c0 -27 80 -334 97 -373 23 -50 72 -93 124 -109 28 -8 258
-40 454 -63 32 -4 304 -39 550 -71 251 -33 417 -55 450 -59 22 -2 127 -16 234
-30 243 -32 319 -32 562 0 107 14 212 28 234 30 22 3 126 16 230 30 105 14
244 32 310 40 66 8 188 24 270 35 83 11 168 22 190 25 212 25 443 57 464 65
47 18 93 61 113 105 16 38 98 349 98 375 0 5 -9 9 -20 9 -11 0 -20 -6 -20 -14
0 -18 -27 -46 -43 -46 -7 0 -6 4 3 10 13 8 12 10 -2 10 -15 0 -18 -9 -18 -44
0 -25 -4 -48 -10 -51 -6 -4 -10 11 -10 38 0 52 -21 68 -51 41 -23 -20 -26 -12
-4 10 21 21 8 46 -24 46 -26 0 -28 -3 -56 -122 -17 -67 -37 -130 -45 -140 -14
-18 -90 -33 -260 -52 -115 -13 -130 -18 -130 -37 0 -17 12 -23 47 -22 7 1 10
-3 7 -8 -10 -16 6 -47 29 -54 l22 -8 -22 -4 c-13 -2 -23 -10 -23 -17 0 -8 -7
-19 -15 -26 -10 -9 -15 -9 -15 -1 0 6 -7 11 -15 11 -9 0 -15 -9 -15 -25 0 -14
-4 -25 -10 -25 -5 0 -10 9 -10 20 0 22 -27 27 -48 10 -9 -7 -9 -7 -2 2 21 25
11 47 -22 51 l-33 3 33 9 c38 9 48 21 32 40 -8 10 -8 15 0 20 6 4 14 4 17 1 4
-3 1 -6 -6 -6 -7 0 -9 -4 -6 -10 14 -22 34 -9 33 21 l-1 31 -71 -7 c-39 -3
-84 -8 -101 -11 -16 -2 -97 -13 -180 -24 -82 -11 -153 -24 -158 -29 -10 -10
40 -44 52 -36 5 3 7 -4 4 -14 -3 -11 4 -28 16 -40 19 -19 19 -21 4 -22 -10 -1
-26 0 -37 1 -11 1 -16 -3 -13 -12 2 -7 10 -12 16 -10 7 1 10 -2 7 -7 -3 -5
-14 -7 -24 -4 -12 3 -21 -4 -29 -24 l-11 -28 -1 28 c-1 31 -16 34 -45 10 -12
-10 -15 -11 -8 -3 21 25 15 50 -14 50 -14 0 -23 4 -19 10 4 6 10 8 15 5 11 -7
42 24 35 35 -3 4 3 7 13 6 12 -1 18 8 20 30 3 28 1 30 -25 27 -427 -54 -432
-55 -433 -84 0 -9 51 -30 60 -24 4 3 6 -4 3 -14 -3 -11 4 -28 16 -40 15 -15
17 -21 7 -21 -8 0 -17 -6 -19 -12 -4 -10 -6 -10 -6 0 -1 6 -5 12 -11 12 -14 0
-12 -28 2 -32 9 -3 9 -6 0 -12 -7 -4 -12 -2 -12 3 0 6 -7 11 -15 11 -8 0 -15
-9 -15 -20 0 -11 -4 -20 -10 -20 -5 0 -10 7 -10 15 0 18 -31 20 -50 3 -13 -11
-13 -11 -2 2 21 25 15 50 -14 50 -14 0 -23 4 -19 10 4 6 10 8 15 5 5 -3 18 3
30 15 11 11 25 20 30 20 14 0 12 27 -2 33 -10 4 -10 6 0 6 26 2 12 31 -15 31
-46 0 -427 -51 -435 -58 -11 -12 4 -62 18 -62 8 0 14 -7 14 -15 0 -8 7 -15 15
-15 20 0 19 5 -9 33 l-25 25 24 -2 c13 0 21 -5 18 -9 -7 -12 26 -59 37 -52 6
4 10 1 10 -4 0 -11 -19 -15 -52 -12 -10 1 -18 -4 -18 -12 0 -8 -7 -17 -15 -21
-8 -3 -15 -15 -15 -26 0 -11 -4 -20 -10 -20 -5 0 -10 9 -10 20 0 22 -27 27
-48 10 -9 -7 -9 -7 -2 2 21 25 11 47 -22 51 l-33 3 33 9 c40 9 48 21 31 43
-11 14 -11 15 1 5 25 -23 40 -15 40 20 l0 32 -182 24 c-241 32 -284 35 -293
22 -7 -12 41 -35 55 -26 4 3 8 -1 7 -8 -1 -35 5 -48 25 -57 20 -8 18 -9 -14
-9 -40 -1 -49 -15 -25 -41 10 -12 9 -12 -5 -1 -21 15 -38 7 -38 -20 0 -10 -4
-19 -10 -19 -5 0 -10 9 -10 20 0 23 -28 27 -50 8 -13 -11 -13 -11 -2 2 23 26
14 48 -20 53 l-33 3 33 9 c19 4 36 14 39 21 3 8 11 14 19 14 15 0 21 70 7 70
-5 0 -98 11 -207 25 -110 14 -209 25 -220 25 -19 -1 -19 -2 4 -15 19 -10 28
-11 39 -2 12 10 13 9 6 -3 -5 -8 -8 -24 -6 -35 2 -17 -1 -16 -21 8 -27 30 -38
34 -38 12 0 -8 7 -15 15 -15 8 0 15 -7 15 -15 0 -10 10 -15 29 -15 17 0 33 -4
36 -10 4 -6 -8 -10 -29 -10 -25 0 -36 -4 -36 -15 0 -18 16 -20 23 -2 4 7 6 8
6 1 1 -6 -6 -17 -14 -24 -10 -9 -15 -9 -15 -1 0 6 -7 11 -15 11 -10 0 -15 -10
-15 -30 0 -16 -4 -30 -10 -30 -5 0 -10 10 -10 23 0 34 -10 39 -39 21 -14 -9
-20 -11 -13 -3 23 25 14 47 -20 52 l-33 3 33 9 c38 9 48 21 33 39 -12 14 4 36
26 36 7 0 13 5 13 10 0 6 -4 10 -9 10 -5 0 -76 9 -157 20 -82 11 -171 23 -199
26 -27 4 -52 8 -54 10 -2 2 -12 -7 -22 -20 -23 -29 -15 -60 19 -73 l27 -11
-27 -1 c-14 -1 -29 -7 -31 -13 -4 -10 -6 -10 -6 0 -1 6 -5 12 -11 12 -14 0
-12 -28 2 -32 9 -3 9 -6 0 -12 -7 -4 -12 -2 -12 3 0 6 -7 11 -15 11 -10 0 -15
-10 -15 -30 0 -16 -4 -30 -10 -30 -5 0 -10 10 -10 23 0 34 -10 39 -39 21 -14
-9 -20 -11 -13 -3 6 7 12 21 12 31 0 14 -8 18 -37 18 -28 0 -34 3 -23 10 8 5
25 10 38 10 15 0 22 6 22 19 0 11 6 18 16 17 23 -2 29 21 7 27 -17 4 -17 5 0
6 20 1 24 31 3 31 -18 0 -316 40 -341 46 -31 7 -49 -10 -41 -40 3 -14 13 -26
21 -26 8 0 15 -4 15 -10 0 -5 -6 -10 -14 -10 -7 0 -22 -12 -32 -27 -10 -16
-19 -23 -22 -15 -8 25 -32 12 -32 -17 0 -17 -4 -33 -10 -36 -6 -4 -10 6 -10
23 0 39 -9 45 -37 26 -24 -15 -24 -15 -9 9 20 29 13 37 -33 37 -27 0 -32 3
-21 10 8 5 25 10 36 10 23 0 40 25 24 35 -6 4 -10 12 -10 18 0 7 5 4 11 -5 16
-28 39 -10 40 31 0 32 1 34 11 14 9 -20 54 -40 65 -29 2 2 -2 24 -10 48 -8 23
-24 85 -37 136 -24 97 -40 119 -66 86 -12 -17 -13 -17 -8 -1 4 11 1 17 -10 17
-18 0 -21 -20 -6 -38 7 -9 7 -9 -2 -2 -22 18 -38 11 -38 -17 0 -16 -5 -35 -10
-43 -7 -11 -10 -4 -10 28 0 48 -12 53 -49 20 l-25 -23 22 29 c12 15 19 32 16
37 -7 12 -64 12 -64 0z m4170 -251 c0 -28 36 -45 58 -28 15 12 16 11 4 -4 -18
-22 -6 -58 19 -58 10 0 19 -4 19 -10 0 -5 -9 -10 -20 -10 -11 0 -26 -12 -34
-27 -8 -16 -15 -22 -16 -15 0 6 -7 12 -15 12 -10 0 -15 -10 -15 -29 0 -17 -4
-33 -10 -36 -6 -4 -10 7 -10 24 0 34 -23 42 -50 19 -12 -11 -12 -10 -2 3 18
24 4 47 -31 52 l-32 3 34 9 c20 5 36 16 38 26 3 11 8 17 12 15 11 -7 36 12 28
20 -4 4 -19 2 -34 -5 -26 -10 -27 -10 -9 4 11 8 26 15 33 15 7 0 13 11 13 26
0 14 4 23 10 19 6 -3 10 -15 10 -25z"/>
<path d="M4580 1980 c0 -5 5 -10 11 -10 5 0 7 5 4 10 -3 6 -8 10 -11 10 -2 0
-4 -4 -4 -10z"/>
<path d="M4611 1904 c0 -11 3 -14 6 -6 3 7 2 16 -1 19 -3 4 -6 -2 -5 -13z"/>
<path d="M4725 2279 c-4 -6 -5 -12 -2 -15 2 -3 7 2 10 11 7 17 1 20 -8 4z"/>
<path d="M4080 2223 c0 -13 5 -23 10 -23 13 0 13 11 0 30 -8 12 -10 11 -10 -7z"/>
<path d="M652 1988 c6 -18 28 -21 28 -4 0 9 -7 16 -16 16 -9 0 -14 -5 -12 -12z"/>
<path d="M686 1963 c-11 -11 -6 -23 9 -23 8 0 15 4 15 9 0 13 -16 22 -24 14z"/>
<path d="M1130 1942 c0 -16 47 -31 59 -19 19 19 12 27 -24 27 -19 0 -35 -4
-35 -8z"/>
<path d="M680 1905 c0 -8 4 -15 9 -15 5 0 11 7 15 15 3 9 0 15 -9 15 -8 0 -15
-7 -15 -15z"/>
<path d="M1130 1905 c0 -8 7 -15 15 -15 8 0 15 -7 15 -15 0 -8 5 -15 10 -15
15 0 12 17 -7 40 -21 24 -33 26 -33 5z"/>
<path d="M4100 1900 c0 -5 5 -10 10 -10 6 0 10 5 10 10 0 6 -4 10 -10 10 -5 0
-10 -4 -10 -10z"/>
<path d="M4130 1870 c0 -5 5 -10 10 -10 6 0 10 5 10 10 0 6 -4 10 -10 10 -5 0
-10 -4 -10 -10z"/>
<path d="M1607 1854 c-9 -10 2 -24 19 -24 8 0 14 7 14 15 0 15 -21 21 -33 9z"/>
<path d="M3570 1835 c0 -8 7 -15 15 -15 8 0 15 -7 15 -15 0 -8 5 -15 10 -15
14 0 13 7 -6 35 -18 28 -34 33 -34 10z"/>
<path d="M4130 1825 c0 -8 5 -15 10 -15 6 0 10 7 10 15 0 8 -4 15 -10 15 -5 0
-10 -7 -10 -15z"/>
<path d="M2130 1770 c0 -5 7 -10 15 -10 8 0 15 -7 15 -15 0 -8 5 -15 10 -15
16 0 12 15 -8 33 -21 19 -32 22 -32 7z"/>
<path d="M3100 1765 c0 -8 7 -15 15 -15 8 0 15 -7 15 -15 0 -8 5 -15 10 -15
16 0 12 14 -10 38 -24 26 -30 27 -30 7z"/>
</g>
</svg>
